<svg id="Layer_1" data-name="Layer 1" xmlns="http://www.w3.org/2000/svg" viewBox="0 0 252.38 239.2"><defs><style>.cls-1{fill:#613d31;}.cls-2{fill:#915a4f;}.cls-3{fill:#e4bc93;}.cls-4{fill:#fd9101;}.cls-5{fill:#fcca03;}.cls-6{fill:#7e5d62;}.cls-7{fill:#fdfdfd;}</style></defs><title>Artboard 1</title><path class="cls-1" d="M2.39,111A99,99,0,0,1,6.25,94.46,95.74,95.74,0,0,1,13,78.87c7.33,4.26,14.83,8,23.58,8.24a12.22,12.22,0,0,1-1.28,2.11c-10.73,11.69-14.83,25.54-14.13,41.24,1.13,25.12,24.38,48.4,49.45,49.77a63.23,63.23,0,0,0,33.6-7.33q8.75,15.57,17.51,31.14c1,1.81,1.76,4.1,4.59,3.77,2.72.11,3.53-2,4.57-3.88q8.72-15.53,17.43-31.07c9.33,4.62,18.9,7.62,29.6,7.49,36.65-.45,62.55-36.67,50.94-71.52-2.74-8.23-7.66-15-12.89-21.69,7.15-.7,14.09-2.1,20-6.51,1.07-.79,2-1.77,3.52-1.57,9.21,17,12.64,35.23,11.27,54.38-3.78,52.66-46.59,94.31-100.2,103.5-41.08,7-78.42-2-110.51-29.17A106.38,106.38,0,0,1,2.93,143.91,105.24,105.24,0,0,1,2.39,111Z"/><path class="cls-2" d="M36.54,87.1c-8.74-.21-16.37-3.59-23.58-8.24S4,70.71,1.25,59a63,63,0,0,1,0-25,6.94,6.94,0,0,1,.81,1.2,2.45,2.45,0,0,1,.19.43C6,47.22,13.82,53.82,26,55.31c10.13,1.24,20.26.43,30.39.57,25.66.37,45.66,11.33,60.4,32.09,6.36,9,12.61,9,19-.18C147.42,71,163.3,60.65,183.41,57c12-2.21,24.22-.61,36.34-1a49.16,49.16,0,0,0,11.8-1.56c10.81-3,16.66-10.79,19.54-21.21.05,5.78,1.29,8.72,1.29,14.5,0,9.63-4.22,21-10.75,28.11-.88,1-2,1.81-2.15,3.24-1.5-.19-2.46.78-3.52,1.57-5.94,4.42-12.87,5.81-20,6.51-16.31,0-32.63-.31-48.93-.06-19,.29-36.19,17.6-36.71,36.62-.08,3-.22,6.16-4,6.14s-3.9-3.16-4-6.17c-.76-19.3-17.68-36.31-36.74-36.6C69.17,86.82,52.85,87.07,36.54,87.1Z"/><path class="cls-3" d="M251.09,33.19c-2.88,10.42-8.72,18.17-19.54,21.21A49.16,49.16,0,0,1,219.75,56c-12.11.39-24.29-1.21-36.34,1-20.11,3.69-36,14-47.63,30.83-6.34,9.14-12.59,9.14-19,.18-14.75-20.76-34.74-31.71-60.4-32.09-10.13-.15-20.26.67-30.39-.57C13.82,53.82,6,47.22,2.26,35.64a8.05,8.05,0,0,0-1-1.63C1.25,25,.79,15.89,1.1,6.86,1.36-.69,4-.89,7.25,1,10,2.59,9.14,4.23,9.39,6.37,10.09,12.53,12,18.22,16.49,23c12,12.67,27,9.09,41.59,8.08,8,1.91,5.3,1.49,8,1.91A74,74,0,0,1,110.15,56c7,7.47,11.92,16.14,15.68,25.38,1.3-.09,1.29-.87,1.52-1.44q15.9-38.36,56.57-46.71c3.49-.72,0,0,10.46-2.21,9.75,1.15,14.55.76,21.82.84,12.6.15,23.17-8.82,26.19-21.12.8-3.27-.14-7.14,2.87-9.78a2.78,2.78,0,0,1,4,0,6.49,6.49,0,0,1,2.05,5.37C251.11,15.31,251.14,24.25,251.09,33.19Z"/><path class="cls-3" d="M36.54,87.1c16.31,0,32.63-.29,48.94,0,19.06.28,36,17.3,36.74,36.6.12,3,.2,6.16,4,6.17s4-3.12,4-6.14c.52-19,17.68-36.33,36.71-36.62,16.31-.25,32.62,0,48.93.06,5.23,6.67,10.15,13.46,12.89,21.69,11.61,34.85-14.29,71.07-50.94,71.52-10.7.13-20.27-2.87-29.6-7.49-7.22-5.38-14-11.21-18.4-19.27a4.06,4.06,0,0,0-7.28.06c-4.44,8.05-11.2,13.87-18.41,19.26a63.23,63.23,0,0,1-33.6,7.33c-25.08-1.37-48.32-24.65-49.45-49.77-.71-15.7,3.4-29.55,14.13-41.24A12.22,12.22,0,0,0,36.54,87.1Zm140.8,3.84c-19.63-.14-35.47,14.89-35.56,34.73-.09,20.57,16.64,35.19,34,35.33,20.25.16,36.19-15,36.35-34.53A35.08,35.08,0,0,0,177.34,90.94Zm-67,35.29c1.29-17.91-15.46-35.68-34.77-35.36C56,91.18,40.22,106.59,40.26,126a35.09,35.09,0,0,0,35.28,35A34.55,34.55,0,0,0,110.33,126.23Z"/><path class="cls-4" d="M104.19,172.89c7.21-5.39,14-11.21,18.41-19.26a4.29,4.29,0,0,1,3.62-2.29q0,28.23.06,56.46c-2.83.33-3.56-2-4.59-3.77Q112.9,188.48,104.19,172.89Z"/><path class="cls-5" d="M126.28,207.8q0-28.23-.06-56.46a4.29,4.29,0,0,1,3.65,2.24c4.43,8.06,11.18,13.89,18.4,19.27q-8.71,15.54-17.43,31.07C129.8,205.77,129,207.91,126.28,207.8Z"/><path class="cls-1" d="M58.08,31q68.15-37.08,136.29,0c-7,1.5-7,1.5-10.46,2.22Q143.25,41.63,127.35,80c-.24.57-.22,1.35-1.52,1.44-3.75-9.24-8.67-17.91-15.68-25.38A74,74,0,0,0,66.06,32.94Z"/><path class="cls-2" d="M177.34,90.94a35.08,35.08,0,0,1,34.83,35.54C212,146,196.07,161.17,175.82,161c-17.4-.14-34.12-14.76-34-35.33C141.86,105.83,157.7,90.8,177.34,90.94Zm-.57,58.19c13.5,0,23.49-9.81,23.5-23.17,0-12.64-10.48-23.46-22.93-23.66-12.81-.21-24.11,11-24,23.84A23.21,23.21,0,0,0,176.77,149.13Z"/><path class="cls-2" d="M110.33,126.23A34.55,34.55,0,0,1,75.54,161a35.09,35.09,0,0,1-35.28-35c0-19.36,15.75-34.77,35.3-35.09C94.87,90.56,111.62,108.32,110.33,126.23ZM75.52,149.13c13.24,0,23.68-10.29,23.62-23.28-.06-12.6-11.09-23.53-23.79-23.55-12.35,0-23.09,10.88-23.12,23.47C52.2,139.21,62.09,149.13,75.52,149.13Z"/><path class="cls-5" d="M176.77,149.13a23.21,23.21,0,0,1-23.41-23c-.13-12.82,11.17-24.05,24-23.84,12.45.2,22.93,11,22.93,23.66C200.26,139.31,190.27,149.17,176.77,149.13Zm11.73-23.95c4.49-4.3,5.15-8.86,1.78-12.41s-8.09-3-12.42,1.44c-7.7.43-12.75,5.17-12.65,11.87a12.1,12.1,0,0,0,11.93,11.72C183.66,137.73,188.12,132.77,188.5,125.18Z"/><path class="cls-5" d="M75.52,149.13c-13.43,0-23.33-9.92-23.3-23.36,0-12.59,10.77-23.49,23.12-23.47,12.7,0,23.74,10.94,23.79,23.55C99.2,138.83,88.77,149.12,75.52,149.13Zm.81-34.92c-8.36.67-12.69,5.06-12.35,12.48a11.62,11.62,0,0,0,11.34,11.12c6.53.21,11.49-5.08,11.9-12.68,4.55-4.55,5.1-8.86,1.57-12.39S80.87,109.76,76.34,114.2Z"/><path class="cls-6" d="M188.5,125.18c-.37,7.59-4.84,12.55-11.35,12.62a12.1,12.1,0,0,1-11.93-11.72c-.1-6.69,5-11.43,12.65-11.86C175.86,123,180,127.27,188.5,125.18Z"/><path class="cls-7" d="M188.5,125.18c-8.49,2.09-12.64-2.19-10.64-11,4.33-4.43,9.07-5,12.42-1.44S193,120.88,188.5,125.18Z"/><path class="cls-6" d="M87.22,125.12c-.4,7.6-5.37,12.89-11.9,12.68A11.62,11.62,0,0,1,64,126.68c-.34-7.42,4-11.8,12.35-12.48C73.06,121.73,80.2,128.45,87.22,125.12Z"/><path class="cls-7" d="M87.22,125.12c-7,3.32-14.16-3.4-10.88-10.92,4.53-4.44,9-5,12.46-1.47S91.77,120.58,87.22,125.12Z"/></svg>